<?xml version="1.0" encoding="UTF-8" standalone="no"?>
<!-- Created with Inkscape (http://www.inkscape.org/) -->

<svg
   xmlns:dc="http://purl.org/dc/elements/1.1/"
   xmlns:cc="http://creativecommons.org/ns#"
   xmlns:rdf="http://www.w3.org/1999/02/22-rdf-syntax-ns#"
   xmlns:svg="http://www.w3.org/2000/svg"
   xmlns="http://www.w3.org/2000/svg"
   xmlns:sodipodi="http://sodipodi.sourceforge.net/DTD/sodipodi-0.dtd"
   xmlns:inkscape="http://www.inkscape.org/namespaces/inkscape"
   width="29.940912mm"
   height="10.242269mm"
   viewBox="0 0 29.940912 10.242269"
   version="1.1"
   id="svg8"
   inkscape:version=""
   sodipodi:docname="Songle.svg">
  <defs
     id="defs2" />
  <sodipodi:namedview
     id="base"
     pagecolor="#ffffff"
     bordercolor="#666666"
     borderopacity="1.0"
     inkscape:pageopacity="0.0"
     inkscape:pageshadow="2"
     inkscape:zoom="7.9195959"
     inkscape:cx="51.412385"
     inkscape:cy="20.43803"
     inkscape:document-units="mm"
     inkscape:current-layer="layer1"
     showgrid="false"
     inkscape:window-width="2524"
     inkscape:window-height="1374"
     inkscape:window-x="2576"
     inkscape:window-y="46"
     inkscape:window-maximized="1" />
  <metadata
     id="metadata5">
    <rdf:RDF>
      <cc:Work
         rdf:about="">
        <dc:format>image/svg+xml</dc:format>
        <dc:type
           rdf:resource="http://purl.org/dc/dcmitype/StillImage" />
        <dc:title></dc:title>
      </cc:Work>
    </rdf:RDF>
  </metadata>
  <g
     inkscape:label="Layer 1"
     inkscape:groupmode="layer"
     id="layer1"
     transform="translate(-40.385132,-89.765689)">
    <g
       aria-label="Songle"
       style="font-style:normal;font-weight:normal;font-size:10.58333302px;line-height:1.25;font-family:sans-serif;letter-spacing:0px;word-spacing:0px;fill:#000000;fill-opacity:0.48535563;stroke:none;stroke-width:0.26458332"
       id="text4520">
      <path
         d="m 45.351237,90.344465 v 1.018026 q -0.594279,-0.284221 -1.121379,-0.423747 -0.527099,-0.139527 -1.018025,-0.139527 -0.852662,0 -1.317749,0.33073 -0.459921,0.330729 -0.459921,0.940511 0,0.511596 0.304891,0.775146 0.310059,0.258382 1.167888,0.418579 l 0.630452,0.129191 q 1.167887,0.222209 1.720825,0.785482 0.558106,0.558105 0.558106,1.498616 0,1.121379 -0.754476,1.700155 -0.749308,0.578776 -2.201416,0.578776 -0.54777,0 -1.167887,-0.124023 -0.61495,-0.124024 -1.276408,-0.366903 v -1.07487 q 0.63562,0.356568 1.245402,0.537435 0.609782,0.180868 1.198893,0.180868 0.894002,0 1.379761,-0.3514 0.485758,-0.3514 0.485758,-1.002523 0,-0.568441 -0.3514,-0.888834 -0.346232,-0.320394 -1.142049,-0.480591 l -0.63562,-0.124024 q -1.167887,-0.232544 -1.689819,-0.728637 -0.521932,-0.496094 -0.521932,-1.379761 0,-1.023193 0.718302,-1.612305 0.72347,-0.589111 1.989543,-0.589111 0.542602,0 1.105875,0.09819 0.563273,0.09819 1.152385,0.294556 z"
         style="font-style:normal;font-variant:normal;font-weight:normal;font-stretch:normal;font-family:sans-serif;-inkscape-font-specification:sans-serif;letter-spacing:-0.97366661px;word-spacing:0px;fill:#4285f4;fill-opacity:1"
         id="path4745" />
      <path
         d="m 48.671882,92.685407 q -0.764812,0 -1.209229,0.599447 -0.444417,0.594279 -0.444417,1.632975 0,1.038696 0.439249,1.638143 0.444418,0.594279 1.214397,0.594279 0.759643,0 1.20406,-0.599447 0.444418,-0.599446 0.444418,-1.632975 0,-1.028361 -0.444418,-1.627808 -0.444417,-0.604614 -1.20406,-0.604614 z m 0,-0.806152 q 1.240234,0 1.948201,0.806152 0.707967,0.806152 0.707967,2.232422 0,1.421102 -0.707967,2.232422 -0.707967,0.806152 -1.948201,0.806152 -1.245402,0 -1.95337,-0.806152 -0.702799,-0.81132 -0.702799,-2.232422 0,-1.42627 0.702799,-2.232422 0.707968,-0.806152 1.95337,-0.806152 z"
         style="font-style:normal;font-variant:normal;font-weight:normal;font-stretch:normal;font-family:sans-serif;-inkscape-font-specification:sans-serif;letter-spacing:-0.97366661px;word-spacing:0px;fill:#ea4335;fill-opacity:1"
         id="path4747" />
      <path
         d="m 56.736423,94.313215 v 3.493326 h -0.950847 v -3.46232 q 0,-0.821656 -0.320394,-1.229899 -0.320393,-0.408244 -0.961181,-0.408244 -0.769979,0 -1.214396,0.490926 -0.444418,0.490926 -0.444418,1.338419 v 3.271118 h -0.956014 v -5.78776 h 0.956014 v 0.89917 q 0.341065,-0.521932 0.800985,-0.780314 0.465088,-0.258382 1.069702,-0.258382 0.997355,0 1.508952,0.620117 0.511597,0.61495 0.511597,1.813843 z"
         style="font-style:normal;font-variant:normal;font-weight:normal;font-stretch:normal;font-family:sans-serif;-inkscape-font-specification:sans-serif;letter-spacing:-0.97366661px;word-spacing:0px;fill:#fbbc05;fill-opacity:1"
         id="path4749" />
      <path
         d="m 61.47817,94.845482 q 0,-1.033529 -0.428914,-1.601969 -0.423747,-0.568441 -1.193726,-0.568441 -0.764811,0 -1.193725,0.568441 -0.423747,0.56844 -0.423747,1.601969 0,1.028361 0.423747,1.596802 0.428914,0.56844 1.193725,0.56844 0.769979,0 1.193726,-0.56844 0.428914,-0.568441 0.428914,-1.596802 z m 0.950847,2.242757 q 0,1.477946 -0.656291,2.196248 -0.656291,0.723473 -2.010213,0.723473 -0.501262,0 -0.945679,-0.07752 -0.444417,-0.07235 -0.862996,-0.227377 v -0.925008 q 0.418579,0.227377 0.826823,0.335897 0.408243,0.108521 0.83199,0.108521 0.935343,0 1.400431,-0.490926 0.465088,-0.485759 0.465088,-1.472779 v -0.470255 q -0.294555,0.511596 -0.754476,0.764811 -0.45992,0.253214 -1.100708,0.253214 -1.064534,0 -1.715657,-0.81132 -0.651123,-0.811319 -0.651123,-2.149739 0,-1.343587 0.651123,-2.154907 0.651123,-0.81132 1.715657,-0.81132 0.640788,0 1.100708,0.253214 0.459921,0.253215 0.754476,0.764812 v -0.8785 h 0.950847 z"
         style="font-style:normal;font-variant:normal;font-weight:normal;font-stretch:normal;font-family:sans-serif;-inkscape-font-specification:sans-serif;letter-spacing:-0.97366661px;word-spacing:0px;fill:#4285f4;fill-opacity:1"
         id="path4751" />
      <path
         d="m 63.413886,89.765689 h 0.950846 v 8.040852 h -0.950846 z"
         style="font-style:normal;font-variant:normal;font-weight:normal;font-stretch:normal;font-family:sans-serif;-inkscape-font-specification:sans-serif;letter-spacing:-0.97366661px;word-spacing:0px;fill:#34a853;fill-opacity:1"
         id="path4753" />
      <path
         d="m 70.326043,94.67495 v 0.465088 h -4.371826 q 0.06201,0.981852 0.589112,1.498616 0.532267,0.511597 1.477945,0.511597 0.547771,0 1.059367,-0.134359 0.516765,-0.134359 1.023194,-0.403076 v 0.89917 q -0.511597,0.217041 -1.049032,0.330729 -0.537435,0.113688 -1.090373,0.113688 -1.384928,0 -2.196248,-0.806152 -0.806152,-0.806153 -0.806152,-2.180746 0,-1.421101 0.764811,-2.253092 0.769979,-0.837158 2.072225,-0.837158 1.167887,0 1.844848,0.754476 0.682129,0.749308 0.682129,2.041219 z m -0.950846,-0.279053 q -0.01033,-0.780314 -0.43925,-1.245402 -0.423746,-0.465088 -1.126546,-0.465088 -0.795817,0 -1.276408,0.449585 -0.475423,0.449585 -0.54777,1.266073 z"
         style="font-style:normal;font-variant:normal;font-weight:normal;font-stretch:normal;font-family:sans-serif;-inkscape-font-specification:sans-serif;letter-spacing:-0.97366661px;word-spacing:0px;fill:#ea4335;fill-opacity:1"
         id="path4755" />
    </g>
  </g>
</svg>
